<svg width="964" height="580" viewBox="0 0 964 580" fill="none" xmlns="http://www.w3.org/2000/svg">
<path opacity="0.0991676" d="M467.755 571.541L18.744 305.918C4.44895 297.872 -7.80395 284.689 6.12455 276.04L456.733 16.078C463.487 11.8847 473.751 9.13278 480.636 13.1427L951.901 286.969C966.197 295.277 968.762 318.419 954.52 326.806L526.925 571.122C508.663 581.726 486.165 581.885 467.755 571.541Z" fill="#6862E6"/>
<path d="M721.018 354.391L501.313 224.399C494.318 220.461 488.323 214.01 495.138 209.777L715.625 82.5553C718.93 80.5031 723.952 79.1564 727.321 81.1188L957.916 215.126C964.91 219.192 966.166 230.517 959.197 234.621L749.971 354.186C741.035 359.376 730.026 359.454 721.018 354.391Z" fill="#5B36A0"/>
<path d="M721.018 348.391L501.313 218.399C494.318 214.461 488.323 208.01 495.138 203.777L715.625 76.5553C718.93 74.5031 723.952 73.1564 727.321 75.1188L957.916 209.126C964.91 213.192 966.166 224.517 959.197 228.621L749.971 348.186C741.035 353.376 730.026 353.454 721.018 348.391Z" fill="#6862E6"/>
<g style="mix-blend-mode:multiply" opacity="0.25">
<path d="M739.133 176.881L695.781 201.648C695.781 201.648 762.564 242.448 776.22 248.194L801.188 212.281" fill="url(#paint0_linear_130_3)"/>
</g>
<g style="mix-blend-mode:multiply" opacity="0.25">
<path d="M724.157 295.702L680.792 270.986L637.428 295.753C637.428 295.753 660.013 309.554 681.599 322.226C695.307 312.517 709.027 302.705 724.157 295.702Z" fill="url(#paint1_linear_130_3)"/>
</g>
<g style="mix-blend-mode:multiply" opacity="0.46">
<path d="M630.728 143.071L603.223 158.783C603.223 158.783 605.554 173.187 619.211 178.933L655.222 155.846" fill="url(#paint2_linear_130_3)"/>
</g>
<ellipse cx="644.192" cy="147.086" rx="16.59" ry="11.6974" fill="#68E1FD"/>
<ellipse cx="644.179" cy="140.186" rx="12.4265" ry="5.09196" fill="#974C26"/>
<path fill-rule="evenodd" clip-rule="evenodd" d="M643.474 124.807C643.654 127.103 643.731 129.399 643.731 131.695C643.718 134.568 643.577 137.441 643.269 140.301C642.283 138.929 641.309 137.492 640.284 135.876C638.965 133.811 637.735 131.695 636.608 129.527C635.56 127.599 634.664 125.592 633.93 123.524C633.114 121.278 632.459 118.977 631.97 116.637C631.842 116.073 631.727 115.406 631.624 114.79V114.572V114.033C631.522 112.828 631.419 111.545 631.419 110.262C631.362 105.9 632.204 101.573 633.892 97.5516C638.377 104.065 641.401 111.472 642.757 119.266C642.842 119.728 642.923 120.194 643 120.664C643 120.574 643.18 121.511 643.18 121.857L643.308 123.024C643.368 123.614 643.423 124.209 643.474 124.807ZM637.21 105.875C637.21 105.875 637.21 105.876 637.21 105.876H637.197C637.201 105.876 637.206 105.875 637.21 105.875ZM637.21 105.875C637.525 105.857 637.841 105.892 638.145 105.978C637.838 105.636 637.526 105.303 637.21 104.978C637.276 105.273 637.276 105.58 637.21 105.875Z" fill="#999A1C"/>
<path fill-rule="evenodd" clip-rule="evenodd" d="M651.494 127.526C650.405 129.617 649.278 131.528 647.997 133.465C646.446 135.889 644.73 138.223 643.026 140.493C642.911 138.813 642.911 137.069 642.911 135.158C642.911 132.708 643.013 130.271 643.244 127.834C643.402 125.644 643.732 123.47 644.23 121.331C644.753 118.998 645.443 116.705 646.293 114.469C646.523 113.879 646.767 113.302 647.01 112.725L647.01 112.725L647.074 112.52L647.33 112.045C647.907 110.929 648.522 109.826 649.188 108.762C651.502 105.056 654.554 101.868 658.156 99.3987C658.416 107.312 656.96 115.189 653.89 122.486C653.71 122.905 653.527 123.332 653.339 123.768L652.839 124.871L652.314 125.936C652.049 126.466 651.776 126.996 651.494 127.526ZM656.887 107.428C656.801 107.717 656.652 107.984 656.452 108.21C656.702 108.342 656.93 108.511 657.131 108.71C657.062 108.3 656.981 107.872 656.887 107.428Z" fill="#999A1C"/>
<path fill-rule="evenodd" clip-rule="evenodd" d="M651.75 137.107C650.478 137.851 649.196 138.544 647.907 139.185C646.293 139.993 644.64 140.711 642.987 141.404C643.474 140.468 644.025 139.506 644.64 138.48C645.447 137.197 646.293 135.915 647.202 134.632C647.993 133.5 648.871 132.432 649.828 131.438C650.865 130.347 651.978 129.331 653.159 128.398L654.107 127.693L654.21 127.603L654.504 127.424C655.183 127.013 655.862 126.616 656.567 126.256C659.004 125.002 661.673 124.265 664.407 124.089C661.997 128.438 658.676 132.215 654.671 135.158L653.954 135.684L653.339 136.12L652.711 136.517L651.75 137.107ZM661.102 128.001C660.963 128.13 660.796 128.226 660.615 128.283V128.296C660.701 128.457 660.761 128.63 660.795 128.809C660.906 128.544 661.008 128.274 661.102 128.001Z" fill="#999A1C"/>
<path fill-rule="evenodd" clip-rule="evenodd" d="M643.474 124.807C643.654 127.103 643.731 129.399 643.731 131.695C643.718 134.568 643.577 137.441 643.269 140.301C642.283 138.929 641.309 137.492 640.284 135.876C638.965 133.811 637.735 131.695 636.608 129.527C635.56 127.599 634.664 125.592 633.93 123.524C633.114 121.278 632.459 118.977 631.97 116.637C631.842 116.073 631.727 115.406 631.624 114.79V114.572V114.033C631.522 112.828 631.419 111.545 631.419 110.262C631.362 105.9 632.204 101.573 633.892 97.5516C638.377 104.065 641.401 111.472 642.757 119.266C642.842 119.728 642.923 120.194 643 120.664C643 120.574 643.18 121.511 643.18 121.857L643.308 123.024C643.368 123.614 643.423 124.209 643.474 124.807ZM637.21 105.875C637.21 105.875 637.21 105.876 637.21 105.876H637.197C637.201 105.876 637.206 105.875 637.21 105.875ZM637.21 105.875C637.525 105.857 637.841 105.892 638.145 105.978C637.838 105.636 637.526 105.303 637.21 104.978C637.276 105.273 637.276 105.58 637.21 105.875Z" fill="#999A1C"/>
<path fill-rule="evenodd" clip-rule="evenodd" d="M651.494 127.526C650.405 129.617 649.278 131.528 647.997 133.465C646.446 135.889 644.73 138.223 643.026 140.493C642.911 138.813 642.911 137.069 642.911 135.158C642.911 132.708 643.013 130.271 643.244 127.834C643.402 125.644 643.732 123.47 644.23 121.331C644.753 118.998 645.443 116.705 646.293 114.469C646.523 113.879 646.767 113.302 647.01 112.725L647.01 112.725L647.074 112.52L647.33 112.045C647.907 110.929 648.522 109.826 649.188 108.762C651.502 105.056 654.554 101.868 658.156 99.3987C658.416 107.312 656.96 115.189 653.89 122.486C653.71 122.905 653.527 123.332 653.339 123.768L652.839 124.871L652.314 125.936C652.049 126.466 651.776 126.996 651.494 127.526ZM656.887 107.428C656.801 107.717 656.652 107.984 656.452 108.21C656.702 108.342 656.93 108.511 657.131 108.71C657.062 108.3 656.981 107.872 656.887 107.428Z" fill="#999A1C"/>
<path fill-rule="evenodd" clip-rule="evenodd" d="M651.75 137.107C650.478 137.851 649.196 138.544 647.907 139.185C646.293 139.993 644.64 140.711 642.987 141.404C643.474 140.468 644.025 139.506 644.64 138.48C645.447 137.197 646.293 135.915 647.202 134.632C647.993 133.5 648.871 132.432 649.828 131.438C650.865 130.347 651.978 129.331 653.159 128.398L654.107 127.693L654.21 127.603L654.504 127.424C655.183 127.013 655.862 126.616 656.567 126.256C659.004 125.002 661.673 124.265 664.407 124.089C661.997 128.438 658.676 132.215 654.671 135.158L653.954 135.684L653.339 136.12L652.711 136.517L651.75 137.107ZM661.102 128.001C660.963 128.13 660.796 128.226 660.615 128.283V128.296C660.701 128.457 660.761 128.63 660.795 128.809C660.906 128.544 661.008 128.274 661.102 128.001Z" fill="#999A1C"/>
<path d="M756.35 167.21L732.356 178.754C730.513 179.64 729.311 181.473 729.231 183.518C729.15 185.563 730.205 187.485 731.971 188.514L788.839 221.734C791.392 223.228 794.669 222.442 796.269 219.951L810.092 198.429" fill="#A1482D"/>
<path d="M886.854 111.532L695.525 1.15079C692.853 -0.387234 689.566 -0.383345 686.898 1.16099C684.23 2.70533 682.587 5.55602 682.586 8.64123V123.473C682.586 126.039 683.953 128.411 686.173 129.694L890.146 247.578C891.578 248.409 893.345 248.411 894.778 247.582C896.211 246.753 897.093 245.221 897.09 243.564V129.206C897.084 121.905 893.18 115.164 886.854 111.532Z" fill="#F47B56"/>
<path d="M695.537 9.83407L881.089 116.714C885.122 119.039 887.608 123.342 887.61 128.001V214.077C887.607 215.753 886.714 217.301 885.265 218.141C883.816 218.981 882.031 218.987 880.577 218.155L691.348 109.493C689.907 108.665 689.017 107.129 689.017 105.465V13.6178C689.017 12.0625 689.844 10.625 691.188 9.84508C692.532 9.06519 694.189 9.061 695.537 9.83407Z" fill="white"/>
<ellipse cx="772.738" cy="167.654" rx="4.03558" ry="4.61719" transform="rotate(-10.9 772.738 167.654)" fill="#AB643C"/>
<path opacity="0.32" d="M745.41 126.616L831.639 178.484L874.235 153.691L798.126 109.339" fill="url(#paint3_linear_130_3)"/>
<path d="M851.97 116.291L758.746 59.3812C757.73 58.7927 756.474 58.8031 755.468 59.4083C754.461 60.0134 753.862 61.118 753.903 62.2927V94.7171C753.896 95.9102 754.513 97.0201 755.53 97.6414L848.742 153.345C849.739 153.912 850.962 153.905 851.952 153.326C852.942 152.747 853.549 151.684 853.546 150.536L854.033 120.305C854.106 118.695 853.321 117.167 851.97 116.291Z" fill="#E2AC00"/>
<path d="M829.667 132.977C833.01 137.659 838.89 138.967 842.785 135.914C846.679 132.862 847.128 126.59 843.784 121.921C840.441 117.253 834.56 115.931 830.666 118.984C826.771 122.037 826.323 128.296 829.667 132.977Z" fill="white"/>
<path d="M820.52 110.506L782.497 87.5858C781.821 87.2686 781.014 87.5191 780.635 88.1641C780.257 88.8091 780.431 89.6366 781.037 90.0741L819.059 112.994C819.736 113.312 820.543 113.061 820.921 112.416C821.3 111.771 821.126 110.944 820.52 110.506Z" fill="#F2F2F2"/>
<path d="M818.957 119.818L766.548 88.2271C765.885 87.9952 765.152 88.2727 764.808 88.8853C764.464 89.498 764.609 90.2694 765.151 90.7154L817.496 122.319C818.173 122.636 818.98 122.386 819.358 121.741C819.737 121.096 819.563 120.268 818.957 119.831V119.818Z" fill="#F2F2F2"/>
<path d="M833.369 122.575L740.196 65.6788C739.18 65.0904 737.924 65.1007 736.918 65.7059C735.911 66.311 735.312 67.4156 735.353 68.5903V101.002C735.338 102.197 735.951 103.312 736.968 103.939L830.179 159.643C831.187 160.223 832.429 160.213 833.427 159.617C834.426 159.022 835.025 157.933 834.996 156.77L835.483 126.539C835.526 124.937 834.723 123.43 833.369 122.575Z" fill="#F47B56"/>
<path d="M811.065 139.262C814.409 143.944 820.289 145.252 824.184 142.199C828.078 139.147 828.526 132.875 825.183 128.206C821.839 123.537 815.959 122.216 812.065 125.269C808.17 128.321 807.722 134.581 811.065 139.262Z" fill="white"/>
<path d="M801.918 116.791L763.87 93.8706C763.194 93.5534 762.387 93.8039 762.008 94.4489C761.63 95.0939 761.804 95.9214 762.41 96.3589L800.432 119.279C801.109 119.596 801.916 119.346 802.294 118.701C802.673 118.056 802.499 117.228 801.893 116.791H801.918Z" fill="#F2F2F2"/>
<path d="M800.343 126.167L747.946 94.5247C747.27 94.2074 746.463 94.458 746.085 95.103C745.706 95.748 745.88 96.5754 746.486 97.0129L798.895 128.604C799.572 128.921 800.378 128.67 800.757 128.025C801.136 127.38 800.962 126.553 800.356 126.115L800.343 126.167Z" fill="#F2F2F2"/>
<path d="M809.989 126.397L716.791 69.501C715.774 68.9125 714.519 68.9229 713.512 69.528C712.506 70.1332 711.907 71.2377 711.948 72.4125V104.824C711.94 106.017 712.558 107.127 713.575 107.748L806.787 163.452C807.794 164.032 809.036 164.022 810.035 163.427C811.033 162.831 811.633 161.742 811.603 160.579L812.09 130.348C812.132 128.753 811.334 127.253 809.989 126.397Z" fill="#68E1FD"/>
<path d="M809.989 126.397L716.791 69.501C715.774 68.9125 714.519 68.9229 713.512 69.528C712.506 70.1332 711.907 71.2377 711.948 72.4125V104.824C711.94 106.017 712.558 107.127 713.575 107.748L806.787 163.452C807.794 164.032 809.036 164.022 810.035 163.427C811.033 162.831 811.633 161.742 811.603 160.579L812.09 130.348C812.132 128.753 811.334 127.253 809.989 126.397Z" fill="#68E1FD"/>
<path d="M787.673 143.084C791.016 147.766 796.897 149.074 800.791 146.021C804.686 142.969 805.134 136.697 801.79 132.028C798.447 127.359 792.566 126.038 788.672 129.091C784.777 132.144 784.368 138.403 787.673 143.084Z" fill="white"/>
<path d="M778.526 120.613L740.491 97.6928C739.814 97.3755 739.007 97.6261 738.629 98.2711C738.25 98.9161 738.424 99.7435 739.03 100.181L777.053 123.101C777.729 123.418 778.536 123.168 778.915 122.523C779.293 121.878 779.119 121.05 778.513 120.613H778.526Z" fill="#F2F2F2"/>
<path d="M776.95 129.938L724.541 98.3469C723.864 98.0297 723.058 98.2803 722.679 98.9252C722.301 99.5702 722.475 100.398 723.081 100.835L775.49 132.426C776.166 132.743 776.973 132.493 777.352 131.848C777.73 131.203 777.556 130.375 776.95 129.938Z" fill="#F2F2F2"/>
<path d="M687.672 123.217C681.649 128.407 677.094 135.09 674.464 142.597C669.826 155.423 681.42 176.381 681.42 176.381L699.458 162.08" fill="#FF8F6F"/>
<path d="M685.724 292.79L680.831 290.084L682.112 283.081C682.112 283.081 689.401 283.774 690.042 286.365" fill="#003B94"/>
<path d="M687.518 292.688C688.62 292.008 689.773 291.405 690.913 290.802C693.744 289.25 697.831 287.647 699.573 284.735C700.304 283.53 700.212 281.997 699.342 280.888C696.78 277.784 691.169 282.889 688.299 279.451C687.736 278.771 687.467 267.985 687.467 267.985L676.552 270.935C676.552 270.935 674.707 292.611 674.912 293.945C675.117 295.279 678.871 296.51 678.871 296.51C679.988 296.272 681.055 295.838 682.022 295.227C683.162 294.394 682.125 284.222 683.585 285.646C685.045 287.07 685.686 292.636 685.686 292.636C686.292 292.728 686.907 292.746 687.518 292.688Z" fill="#F47B56"/>
<path d="M706.568 303.269L701.674 300.601L702.955 293.598C702.955 293.598 710.244 294.291 710.885 296.882" fill="#003B94"/>
<path d="M708.412 303.167C709.514 302.487 710.667 301.884 711.807 301.281C714.638 299.729 718.725 298.126 720.467 295.214C721.198 294.009 721.106 292.476 720.237 291.367C717.674 288.263 712.063 293.368 709.194 289.93C708.63 289.25 708.361 278.464 708.361 278.464L697.446 281.414C697.446 281.414 695.589 303.167 695.794 304.449C695.999 305.732 699.752 307.014 699.752 307.014C700.87 306.777 701.937 306.342 702.904 305.732C704.044 304.898 703.006 294.727 704.467 296.151C705.927 297.574 706.568 303.141 706.568 303.141C707.179 303.225 707.799 303.234 708.412 303.167Z" fill="#F47B56"/>
<path d="M671.005 232.803L667.789 275.86C667.789 275.86 672.914 282.94 690.093 279.002L690.259 249.977" fill="#3E2928"/>
<path d="M690.849 241.332C690.477 245.039 690.849 285.928 690.849 285.928C690.849 285.928 695.602 294.83 716.291 285.928L715.996 251.182" fill="#3E2928"/>
<path d="M669.403 247.027C670.813 248.002 671.299 242.987 672.773 243.846C678.132 246.963 683.821 249.475 689.734 251.336H689.862C690.147 251.198 690.475 251.181 690.773 251.29C691.07 251.399 691.31 251.624 691.438 251.914C695.091 253.005 698.809 253.861 702.571 254.479C707.4 255.248 711.397 251.67 716.355 251.426C716.355 232.418 716.445 178.317 708.361 166.774L684.443 158.719C684.328 160.694 672.837 174.034 673.119 190.297C673.439 208.626 671.056 225.915 670.646 231.648C670.582 232.623 669.455 245.988 669.403 247.027Z" fill="#3E2928"/>
<path d="M710.565 144.918L708.361 166.723C708.361 166.723 690.516 167.441 682.829 162.131V143.636" fill="#FF8F6F"/>
<path d="M733.252 130.566L731.433 133.054C732.403 131.03 733.259 128.954 733.995 126.834C734.508 125.384 732.189 124.807 731.677 126.256L731.408 127C731.63 126.231 731.839 125.457 732.035 124.679C732.195 124.038 731.805 123.389 731.164 123.229C730.524 123.07 729.876 123.461 729.717 124.102C729.214 126.114 728.611 128.101 727.91 130.053C728.302 128.319 728.584 126.563 728.756 124.794C728.91 123.268 726.514 123.332 726.373 124.794C726.174 126.808 725.814 128.802 725.297 130.758C725.297 130.074 725.233 129.39 725.105 128.706C725.069 128.361 724.887 128.048 724.605 127.847C724.541 127.578 724.464 127.321 724.375 127.052C724.187 126.498 723.629 126.158 723.052 126.247C722.474 126.335 722.044 126.826 722.03 127.411L721.876 136.389C721.443 137.32 720.877 138.184 720.198 138.954C721.351 139.753 722.463 140.609 723.529 141.519C724.48 142.325 725.387 143.181 726.245 144.085C727.014 143.127 727.752 142.152 728.461 141.16C728.549 141.086 728.627 140.999 728.692 140.904C730.827 137.74 733.03 134.628 735.302 131.566C736.25 130.515 734.162 129.348 733.252 130.566Z" fill="#FFB5A9"/>
<path d="M699.24 125.038C699.24 125.038 707.669 127.308 711.09 132.734C713.232 136.489 715.119 140.384 716.739 144.393L722.965 134.709C722.965 134.709 730.524 137.03 733.522 140.75C733.522 140.75 724.554 160.374 716.739 162.054C708.925 163.734 700.623 150.536 700.623 150.536C700.623 150.536 698.907 156.051 699.24 150.164" fill="#FF8F6F"/>
<path d="M704.595 146.009C702.144 144.013 700.295 141.375 699.253 138.39C698.241 134.94 699.509 131.913 700.687 128.706C701.963 125.528 702.708 122.161 702.891 118.74C702.993 115.38 702.609 112.02 702.378 108.672C702.346 108.528 702.346 108.379 702.378 108.236C701.251 104.452 698.945 101.246 694.397 100.861C682.624 99.8604 681.958 112.917 682.048 118.227C682.137 123.537 682.701 127.129 678.794 129.348C674.886 131.566 672.068 137.39 675.796 142.097C679.524 146.804 676.18 145.085 673.695 149.266C671.21 153.448 671.85 158.668 676.949 160.553C682.048 162.439 705.748 158.899 707.926 156.706C708.698 155.822 709.098 154.672 709.04 153.499C708.509 150.547 706.93 147.887 704.595 146.009Z" fill="#007F68"/>
<path fill-rule="evenodd" clip-rule="evenodd" d="M719.506 48.0686C719.325 44.5721 718.171 41.1959 716.176 38.3207C714.4 35.4475 711.777 33.1975 708.669 31.882C707.076 31.1709 705.277 31.0795 703.621 31.6255C702.041 32.1854 700.738 33.334 699.983 34.832C699.073 36.6176 698.666 38.6171 698.804 40.6166C698.915 42.995 699.471 45.3314 700.444 47.5042C701.416 49.7793 702.758 51.8771 704.415 53.712C705.814 55.3435 707.567 56.6333 709.54 57.4829C710.234 57.7604 710.962 57.9458 711.705 58.0344C712.27 58.1104 712.843 58.1104 713.409 58.0344C713.85 57.9732 714.281 57.8524 714.69 57.6753C714.949 57.5729 715.202 57.453 715.445 57.3162L715.702 57.1366L714.152 54.2507L713.639 54.5329C713.119 54.7737 712.546 54.8795 711.974 54.8407C711.095 54.85 710.223 54.6798 709.412 54.3405C707.08 53.2703 705.16 51.4695 703.941 49.2101C702.411 46.9226 701.526 44.2638 701.379 41.5144C701.133 39.3282 701.891 37.1481 703.442 35.5888C704.911 34.2892 707.023 34.0197 708.771 34.909C711.124 35.8882 713.11 37.5845 714.446 39.7573C715.933 41.8929 716.79 44.4041 716.919 47.004C717.013 49.6291 716.44 50.6979 715.202 50.2105C714.761 50.0193 714.392 49.6911 714.152 49.2742C713.868 48.8428 713.708 48.3413 713.69 47.8249L713.434 40.6166L710.872 39.6162V40.7577L710.641 40.3473C710.378 39.9717 710.068 39.6312 709.719 39.334C709.309 38.962 708.836 38.6666 708.323 38.4618C707.286 37.9514 706.041 38.1463 705.21 38.9492C704.265 39.9929 703.829 41.4012 704.018 42.797C704.072 44.521 704.585 46.1992 705.504 47.6581C706.267 49.0008 707.445 50.0587 708.861 50.6723C709.454 50.9413 710.116 51.0219 710.757 50.9031C711.14 50.8468 711.502 50.6921 711.807 50.4542C711.928 50.3223 712.031 50.1758 712.115 50.0181L712.422 50.621C712.718 51.1393 713.089 51.6106 713.524 52.019C714.008 52.5215 714.593 52.915 715.24 53.1733C716.301 53.7387 717.609 53.5116 718.418 52.6218C719.341 51.2957 719.73 49.6695 719.506 48.0686ZM711.051 45.5418C711.136 46.2193 710.947 46.9025 710.526 47.4401C710.133 47.8307 709.533 47.9238 709.04 47.671C708.354 47.3733 707.782 46.8601 707.413 46.2088C706.964 45.492 706.712 44.6689 706.683 43.8231C706.594 43.1508 706.799 42.4726 707.247 41.9633C707.678 41.5732 708.306 41.4915 708.822 41.7581C709.48 42.0445 710.025 42.5405 710.372 43.169C710.797 43.889 711.031 44.7058 711.051 45.5418Z" fill="#F47B56"/>
<path fill-rule="evenodd" clip-rule="evenodd" d="M870.764 186.949C870.586 183.452 869.432 180.075 867.433 177.202C865.721 174.296 863.152 171.993 860.08 170.609C858.482 169.903 856.68 169.812 855.019 170.352C853.44 170.92 852.138 172.072 851.381 173.572C850.471 175.353 850.063 177.348 850.202 179.344C850.312 181.722 850.869 184.059 851.842 186.231C852.813 188.51 854.155 190.612 855.814 192.452C857.214 194.079 858.966 195.364 860.938 196.21C861.628 196.491 862.351 196.681 863.09 196.774C863.66 196.85 864.237 196.85 864.807 196.774C865.246 196.706 865.676 196.585 866.088 196.415C866.348 196.313 866.6 196.193 866.844 196.056L867.1 195.876L865.55 192.991L865.037 193.273C864.515 193.508 863.944 193.614 863.372 193.581C862.492 193.58 861.622 193.406 860.81 193.067C858.482 192.049 856.542 190.309 855.275 188.104C853.743 185.817 852.857 183.158 852.713 180.408C852.441 178.217 853.182 176.022 854.725 174.444C856.198 173.152 858.308 172.888 860.054 173.777C862.4 174.757 864.38 176.448 865.716 178.612C867.202 180.753 868.059 183.268 868.189 185.872C868.266 188.501 867.74 189.566 866.459 189.079C866.018 188.887 865.65 188.559 865.409 188.142C865.13 187.709 864.97 187.208 864.948 186.693L864.691 179.485L862.129 178.497V179.639L861.886 179.228C861.622 178.849 861.312 178.504 860.963 178.202C860.554 177.829 860.081 177.534 859.567 177.33C858.534 176.822 857.294 177.017 856.467 177.817C855.516 178.857 855.079 180.269 855.275 181.665C855.329 183.395 855.847 185.078 856.774 186.539C857.535 187.886 858.713 188.949 860.131 189.566C860.72 189.835 861.379 189.912 862.014 189.784C862.398 189.731 862.76 189.576 863.064 189.335C863.182 189.201 863.285 189.055 863.372 188.899L863.679 189.502C863.978 190.018 864.349 190.489 864.781 190.9C865.268 191.399 865.852 191.792 866.498 192.054C867.559 192.615 868.864 192.388 869.675 191.503C870.598 190.177 870.987 188.55 870.764 186.949ZM862.321 184.423C862.402 185.102 862.208 185.785 861.783 186.321C861.387 186.707 860.788 186.795 860.297 186.539C859.61 186.236 859.039 185.719 858.67 185.064C858.221 184.352 857.969 183.533 857.94 182.691C857.851 182.017 858.061 181.337 858.517 180.831C858.951 180.446 859.578 180.369 860.092 180.639C860.748 180.924 861.289 181.421 861.63 182.05C862.061 182.768 862.299 183.585 862.321 184.423Z" fill="#F47B56"/>
<g style="mix-blend-mode:multiply" opacity="0.25">
<path d="M612.139 231.892L568.774 207.189L525.423 231.943C525.423 231.943 549.545 247.027 571.132 259.699C584.839 250.003 597.022 238.908 612.139 231.892Z" fill="url(#paint4_linear_130_3)"/>
</g>
<g filter="url(#filter0_d_130_3)">
<path fill-rule="evenodd" clip-rule="evenodd" d="M530.93 163.074V216.944L572.899 240.98L620.286 212.955V159.085" fill="#FF9271"/>
</g>
<path d="M572.899 187.11V240.98L620.286 212.955V159.085L572.899 187.11Z" fill="#DF5C34"/>
<path d="M530.93 163.074L579.624 135.318L620.286 159.085L572.899 187.11L530.93 163.074Z" fill="#F47B56"/>
<path fill-rule="evenodd" clip-rule="evenodd" d="M588.22 150.812C583.879 148.435 578.95 147.349 574.013 147.683C568.833 147.774 563.773 149.253 559.358 151.967C557.042 153.285 555.2 155.3 554.092 157.726C553.169 159.826 553.169 162.218 554.092 164.318C555.21 166.7 557.072 168.654 559.396 169.885C562.276 171.513 565.451 172.55 568.735 172.937C572.349 173.438 576.018 173.373 579.612 172.745C582.909 172.243 586.077 171.102 588.938 169.384C589.931 168.777 590.854 168.063 591.692 167.255C592.328 166.653 592.895 165.982 593.383 165.254C593.721 164.715 593.997 164.138 594.203 163.536C594.346 163.16 594.462 162.774 594.549 162.381C594.557 162.236 594.557 162.091 594.549 161.945L589.796 161.676L589.617 162.484C589.359 163.298 588.921 164.043 588.336 164.664C587.461 165.68 586.427 166.547 585.274 167.23C581.942 169.205 578.128 170.218 574.257 170.154C570.368 170.318 566.509 169.399 563.111 167.499C559.998 165.665 558.397 163.382 558.397 160.817C558.371 158.2 559.87 155.947 562.893 154.057C566.216 152.031 570.021 150.937 573.911 150.889C577.581 150.647 581.244 151.462 584.467 153.236C587.499 155.032 588.131 156.481 586.363 157.584C585.067 158.282 583.508 158.282 582.212 157.584L573.872 152.672L570.272 154.917L571.554 155.686H570.849C570.159 155.725 569.476 155.841 568.812 156.032C567.98 156.249 567.185 156.59 566.455 157.046C564.904 157.782 563.909 159.341 563.893 161.06C563.97 162.651 564.994 164.036 566.993 165.216C569.106 166.431 571.513 167.039 573.949 166.973C576.304 167.019 578.624 166.406 580.649 165.203C581.518 164.711 582.243 163.999 582.75 163.138C583.055 162.675 583.232 162.14 583.263 161.586C583.234 161.352 583.174 161.124 583.083 160.906L584.057 160.983C584.949 161.01 585.84 160.919 586.709 160.714C587.766 160.5 588.776 160.101 589.694 159.534C591.628 158.367 592.448 156.982 592.256 155.391C592.064 153.801 590.706 152.274 588.22 150.812ZM577.075 158.944C577.906 159.305 578.506 160.054 578.676 160.945H578.728C578.741 161.765 578.268 162.515 577.523 162.856C576.539 163.438 575.412 163.731 574.269 163.702C573.081 163.73 571.907 163.433 570.875 162.843C570.054 162.483 569.48 161.719 569.363 160.829C569.382 159.975 569.877 159.203 570.644 158.829C571.579 158.268 572.656 157.992 573.744 158.033C574.916 158.035 576.065 158.349 577.075 158.944Z" fill="#3E2928"/>
<defs>
<filter id="filter0_d_130_3" x="480.93" y="134.085" width="189.355" height="181.895" filterUnits="userSpaceOnUse" color-interpolation-filters="sRGB">
<feFlood flood-opacity="0" result="BackgroundImageFix"/>
<feColorMatrix in="SourceAlpha" type="matrix" values="0 0 0 0 0 0 0 0 0 0 0 0 0 0 0 0 0 0 127 0" result="hardAlpha"/>
<feOffset dy="25"/>
<feGaussianBlur stdDeviation="25"/>
<feColorMatrix type="matrix" values="0 0 0 0 0.209139 0 0 0 0 0.0691446 0 0 0 0 0.478091 0 0 0 0.497159 0"/>
<feBlend mode="normal" in2="BackgroundImageFix" result="effect1_dropShadow_130_3"/>
<feBlend mode="normal" in="SourceGraphic" in2="effect1_dropShadow_130_3" result="shape"/>
</filter>
<linearGradient id="paint0_linear_130_3" x1="738.715" y1="184.731" x2="727.685" y2="217.428" gradientUnits="userSpaceOnUse">
<stop stop-color="#78B46A"/>
<stop offset="0.03" stop-color="#7F3500"/>
<stop offset="1" stop-color="white"/>
</linearGradient>
<linearGradient id="paint1_linear_130_3" x1="666.536" y1="251.665" x2="647.981" y2="310.026" gradientUnits="userSpaceOnUse">
<stop stop-color="#78B46A"/>
<stop offset="0.03" stop-color="#7F3500"/>
<stop offset="1" stop-color="white"/>
</linearGradient>
<linearGradient id="paint2_linear_130_3" x1="620.7" y1="129.19" x2="603.536" y2="168.814" gradientUnits="userSpaceOnUse">
<stop stop-color="#78B46A"/>
<stop offset="0.03" stop-color="#7F3500"/>
<stop offset="1" stop-color="white"/>
</linearGradient>
<linearGradient id="paint3_linear_130_3" x1="861.656" y1="164.64" x2="854.951" y2="147.647" gradientUnits="userSpaceOnUse">
<stop stop-color="white" stop-opacity="0.01"/>
<stop offset="0.99" stop-color="#DC841E"/>
</linearGradient>
<linearGradient id="paint4_linear_130_3" x1="555.555" y1="187.538" x2="536.033" y2="245.989" gradientUnits="userSpaceOnUse">
<stop stop-color="#78B46A"/>
<stop offset="0.03" stop-color="#7F3500"/>
<stop offset="1" stop-color="white"/>
</linearGradient>
</defs>
</svg>
